solid ASCII
  facet normal 9.986725e-01 -5.150936e-02 0.000000e+00
    outer loop
      vertex   -7.910835e+01 -1.422790e+02 3.000000e+00
      vertex   -7.741426e+01 -1.094337e+02 3.000000e+00
      vertex   -7.910835e+01 -1.422790e+02 4.500000e+01
    endloop
  endfacet
  facet normal 9.986725e-01 -5.150936e-02 0.000000e+00
    outer loop
      vertex   -7.910835e+01 -1.422790e+02 4.500000e+01
      vertex   -7.741426e+01 -1.094337e+02 3.000000e+00
      vertex   -7.741426e+01 -1.094337e+02 4.500000e+01
    endloop
  endfacet
  facet normal 3.090170e-01 9.510565e-01 -0.000000e+00
    outer loop
      vertex   -7.741426e+01 -1.094337e+02 3.000000e+00
      vertex   -7.910835e+01 -1.088833e+02 3.000000e+00
      vertex   -7.741426e+01 -1.094337e+02 4.500000e+01
    endloop
  endfacet
  facet normal 3.090170e-01 9.510565e-01 0.000000e+00
    outer loop
      vertex   -7.741426e+01 -1.094337e+02 4.500000e+01
      vertex   -7.910835e+01 -1.088833e+02 3.000000e+00
      vertex   -7.910835e+01 -1.088833e+02 4.500000e+01
    endloop
  endfacet
  facet normal 8.090170e-01 5.877853e-01 -0.000000e+00
    outer loop
      vertex   -7.910835e+01 -1.088833e+02 3.000000e+00
      vertex   -1.280000e+02 -4.158972e+01 3.000000e+00
      vertex   -7.910835e+01 -1.088833e+02 4.500000e+01
    endloop
  endfacet
  facet normal 8.090170e-01 5.877853e-01 0.000000e+00
    outer loop
      vertex   -7.910835e+01 -1.088833e+02 4.500000e+01
      vertex   -1.280000e+02 -4.158972e+01 3.000000e+00
      vertex   -1.280000e+02 -4.158972e+01 4.500000e+01
    endloop
  endfacet
  facet normal 0.000000e+00 1.000000e+00 -0.000000e+00
    outer loop
      vertex   -1.280000e+02 -4.158972e+01 3.000000e+00
      vertex   -1.550096e+02 -4.158972e+01 3.000000e+00
      vertex   -1.280000e+02 -4.158972e+01 4.500000e+01
    endloop
  endfacet
  facet normal 0.000000e+00 1.000000e+00 0.000000e+00
    outer loop
      vertex   -1.280000e+02 -4.158972e+01 4.500000e+01
      vertex   -1.550096e+02 -4.158972e+01 3.000000e+00
      vertex   -1.550096e+02 -4.158972e+01 4.500000e+01
    endloop
  endfacet
  facet normal -0.000000e+00 0.000000e+00 1.000000e+00
    outer loop
      vertex   -1.550096e+02 -4.158972e+01 4.500000e+01
      vertex   -1.550096e+02 -1.422790e+02 4.500000e+01
      vertex   -1.280000e+02 -4.158972e+01 4.500000e+01
    endloop
  endfacet
  facet normal 0.000000e+00 0.000000e+00 1.000000e+00
    outer loop
      vertex   -1.280000e+02 -4.158972e+01 4.500000e+01
      vertex   -1.550096e+02 -1.422790e+02 4.500000e+01
      vertex   -7.910835e+01 -1.088833e+02 4.500000e+01
    endloop
  endfacet
  facet normal 0.000000e+00 0.000000e+00 1.000000e+00
    outer loop
      vertex   -7.910835e+01 -1.088833e+02 4.500000e+01
      vertex   -1.550096e+02 -1.422790e+02 4.500000e+01
      vertex   -7.910835e+01 -1.422790e+02 4.500000e+01
    endloop
  endfacet
  facet normal 0.000000e+00 0.000000e+00 1.000000e+00
    outer loop
      vertex   -7.910835e+01 -1.088833e+02 4.500000e+01
      vertex   -7.910835e+01 -1.422790e+02 4.500000e+01
      vertex   -7.741426e+01 -1.094337e+02 4.500000e+01
    endloop
  endfacet
  facet normal 0.000000e+00 0.000000e+00 -1.000000e+00
    outer loop
      vertex   1.307404e+02 -1.422790e+02 0.000000e+00
      vertex   -1.550096e+02 -1.422790e+02 0.000000e+00
      vertex   1.307404e+02 1.434710e+02 0.000000e+00
    endloop
  endfacet
  facet normal -0.000000e+00 0.000000e+00 -1.000000e+00
    outer loop
      vertex   1.307404e+02 1.434710e+02 0.000000e+00
      vertex   -1.550096e+02 -1.422790e+02 0.000000e+00
      vertex   -1.550096e+02 1.434710e+02 0.000000e+00
    endloop
  endfacet
  facet normal -1.000000e+00 -0.000000e+00 0.000000e+00
    outer loop
      vertex   -1.550096e+02 4.158972e+01 3.000000e+00
      vertex   -1.550096e+02 -1.422790e+02 0.000000e+00
      vertex   -1.550096e+02 -4.158972e+01 3.000000e+00
    endloop
  endfacet
  facet normal -1.000000e+00 -0.000000e+00 0.000000e+00
    outer loop
      vertex   -1.550096e+02 -4.158972e+01 3.000000e+00
      vertex   -1.550096e+02 -1.422790e+02 0.000000e+00
      vertex   -1.550096e+02 -1.422790e+02 4.500000e+01
    endloop
  endfacet
  facet normal -1.000000e+00 0.000000e+00 0.000000e+00
    outer loop
      vertex   -1.550096e+02 -4.158972e+01 3.000000e+00
      vertex   -1.550096e+02 -1.422790e+02 4.500000e+01
      vertex   -1.550096e+02 -4.158972e+01 4.500000e+01
    endloop
  endfacet
  facet normal -1.000000e+00 0.000000e+00 0.000000e+00
    outer loop
      vertex   -1.550096e+02 4.158972e+01 4.500000e+01
      vertex   -1.550096e+02 1.434710e+02 4.500000e+01
      vertex   -1.550096e+02 4.158972e+01 3.000000e+00
    endloop
  endfacet
  facet normal -1.000000e+00 0.000000e+00 0.000000e+00
    outer loop
      vertex   -1.550096e+02 4.158972e+01 3.000000e+00
      vertex   -1.550096e+02 1.434710e+02 4.500000e+01
      vertex   -1.550096e+02 1.434710e+02 0.000000e+00
    endloop
  endfacet
  facet normal -1.000000e+00 0.000000e+00 -0.000000e+00
    outer loop
      vertex   -1.550096e+02 4.158972e+01 3.000000e+00
      vertex   -1.550096e+02 1.434710e+02 0.000000e+00
      vertex   -1.550096e+02 -1.422790e+02 0.000000e+00
    endloop
  endfacet
  facet normal 0.000000e+00 -1.000000e+00 0.000000e+00
    outer loop
      vertex   -1.550096e+02 4.158972e+01 3.000000e+00
      vertex   -1.280000e+02 4.158972e+01 3.000000e+00
      vertex   -1.550096e+02 4.158972e+01 4.500000e+01
    endloop
  endfacet
  facet normal 0.000000e+00 -1.000000e+00 0.000000e+00
    outer loop
      vertex   -1.550096e+02 4.158972e+01 4.500000e+01
      vertex   -1.280000e+02 4.158972e+01 3.000000e+00
      vertex   -1.280000e+02 4.158972e+01 4.500000e+01
    endloop
  endfacet
  facet normal 8.090170e-01 -5.877853e-01 0.000000e+00
    outer loop
      vertex   -1.280000e+02 4.158972e+01 3.000000e+00
      vertex   -7.910835e+01 1.088833e+02 3.000000e+00
      vertex   -1.280000e+02 4.158972e+01 4.500000e+01
    endloop
  endfacet
  facet normal 8.090170e-01 -5.877853e-01 0.000000e+00
    outer loop
      vertex   -1.280000e+02 4.158972e+01 4.500000e+01
      vertex   -7.910835e+01 1.088833e+02 3.000000e+00
      vertex   -7.910835e+01 1.088833e+02 4.500000e+01
    endloop
  endfacet
  facet normal 1.000000e+00 0.000000e+00 0.000000e+00
    outer loop
      vertex   -7.910835e+01 1.088833e+02 3.000000e+00
      vertex   -7.910835e+01 1.434710e+02 3.000000e+00
      vertex   -7.910835e+01 1.088833e+02 4.500000e+01
    endloop
  endfacet
  facet normal 1.000000e+00 -0.000000e+00 0.000000e+00
    outer loop
      vertex   -7.910835e+01 1.088833e+02 4.500000e+01
      vertex   -7.910835e+01 1.434710e+02 3.000000e+00
      vertex   -7.910835e+01 1.434710e+02 4.500000e+01
    endloop
  endfacet
  facet normal 0.000000e+00 0.000000e+00 1.000000e+00
    outer loop
      vertex   -7.910835e+01 1.434710e+02 4.500000e+01
      vertex   -1.550096e+02 1.434710e+02 4.500000e+01
      vertex   -7.910835e+01 1.088833e+02 4.500000e+01
    endloop
  endfacet
  facet normal 0.000000e+00 0.000000e+00 1.000000e+00
    outer loop
      vertex   -7.910835e+01 1.088833e+02 4.500000e+01
      vertex   -1.550096e+02 1.434710e+02 4.500000e+01
      vertex   -1.280000e+02 4.158972e+01 4.500000e+01
    endloop
  endfacet
  facet normal 0.000000e+00 0.000000e+00 1.000000e+00
    outer loop
      vertex   -1.280000e+02 4.158972e+01 4.500000e+01
      vertex   -1.550096e+02 1.434710e+02 4.500000e+01
      vertex   -1.550096e+02 4.158972e+01 4.500000e+01
    endloop
  endfacet
  facet normal 0.000000e+00 1.000000e+00 0.000000e+00
    outer loop
      vertex   5.329071e-14 1.434710e+02 3.000000e+00
      vertex   -1.550096e+02 1.434710e+02 0.000000e+00
      vertex   -7.910835e+01 1.434710e+02 3.000000e+00
    endloop
  endfacet
  facet normal 0.000000e+00 1.000000e+00 0.000000e+00
    outer loop
      vertex   -7.910835e+01 1.434710e+02 3.000000e+00
      vertex   -1.550096e+02 1.434710e+02 0.000000e+00
      vertex   -1.550096e+02 1.434710e+02 4.500000e+01
    endloop
  endfacet
  facet normal 0.000000e+00 1.000000e+00 -0.000000e+00
    outer loop
      vertex   -7.910835e+01 1.434710e+02 3.000000e+00
      vertex   -1.550096e+02 1.434710e+02 4.500000e+01
      vertex   -7.910835e+01 1.434710e+02 4.500000e+01
    endloop
  endfacet
  facet normal -0.000000e+00 1.000000e+00 0.000000e+00
    outer loop
      vertex   5.329071e-14 1.434710e+02 4.500000e+01
      vertex   1.307404e+02 1.434710e+02 4.500000e+01
      vertex   5.329071e-14 1.434710e+02 3.000000e+00
    endloop
  endfacet
  facet normal -0.000000e+00 1.000000e+00 0.000000e+00
    outer loop
      vertex   5.329071e-14 1.434710e+02 3.000000e+00
      vertex   1.307404e+02 1.434710e+02 4.500000e+01
      vertex   1.307404e+02 1.434710e+02 0.000000e+00
    endloop
  endfacet
  facet normal 0.000000e+00 1.000000e+00 0.000000e+00
    outer loop
      vertex   5.329071e-14 1.434710e+02 3.000000e+00
      vertex   1.307404e+02 1.434710e+02 0.000000e+00
      vertex   -1.550096e+02 1.434710e+02 0.000000e+00
    endloop
  endfacet
  facet normal -3.090170e-01 9.510565e-01 0.000000e+00
    outer loop
      vertex   7.910835e+01 -1.088833e+02 3.000000e+00
      vertex   -6.217249e-14 -1.345872e+02 3.000000e+00
      vertex   7.910835e+01 -1.088833e+02 4.500000e+01
    endloop
  endfacet
  facet normal -3.090170e-01 9.510565e-01 0.000000e+00
    outer loop
      vertex   7.910835e+01 -1.088833e+02 4.500000e+01
      vertex   -6.217249e-14 -1.345872e+02 3.000000e+00
      vertex   -6.217249e-14 -1.345872e+02 4.500000e+01
    endloop
  endfacet
  facet normal -1.000000e+00 0.000000e+00 0.000000e+00
    outer loop
      vertex   -6.217249e-14 -1.345872e+02 3.000000e+00
      vertex   -6.217249e-14 -1.422790e+02 3.000000e+00
      vertex   -6.217249e-14 -1.345872e+02 4.500000e+01
    endloop
  endfacet
  facet normal -1.000000e+00 -0.000000e+00 0.000000e+00
    outer loop
      vertex   -6.217249e-14 -1.345872e+02 4.500000e+01
      vertex   -6.217249e-14 -1.422790e+02 3.000000e+00
      vertex   -6.217249e-14 -1.422790e+02 4.500000e+01
    endloop
  endfacet
  facet normal -8.090170e-01 5.877853e-01 0.000000e+00
    outer loop
      vertex   8.096245e+01 -1.063314e+02 3.000000e+00
      vertex   7.910835e+01 -1.088833e+02 3.000000e+00
      vertex   8.096245e+01 -1.063314e+02 4.500000e+01
    endloop
  endfacet
  facet normal -8.090170e-01 5.877853e-01 0.000000e+00
    outer loop
      vertex   8.096245e+01 -1.063314e+02 4.500000e+01
      vertex   7.910835e+01 -1.088833e+02 3.000000e+00
      vertex   7.910835e+01 -1.088833e+02 4.500000e+01
    endloop
  endfacet
  facet normal 0.000000e+00 1.000000e+00 -0.000000e+00
    outer loop
      vertex   1.307404e+02 -1.063314e+02 3.000000e+00
      vertex   8.096245e+01 -1.063314e+02 3.000000e+00
      vertex   1.307404e+02 -1.063314e+02 4.500000e+01
    endloop
  endfacet
  facet normal 0.000000e+00 1.000000e+00 0.000000e+00
    outer loop
      vertex   1.307404e+02 -1.063314e+02 4.500000e+01
      vertex   8.096245e+01 -1.063314e+02 3.000000e+00
      vertex   8.096245e+01 -1.063314e+02 4.500000e+01
    endloop
  endfacet
  facet normal -0.000000e+00 0.000000e+00 1.000000e+00
    outer loop
      vertex   -6.217249e-14 -1.422790e+02 4.500000e+01
      vertex   1.307404e+02 -1.422790e+02 4.500000e+01
      vertex   -6.217249e-14 -1.345872e+02 4.500000e+01
    endloop
  endfacet
  facet normal -0.000000e+00 0.000000e+00 1.000000e+00
    outer loop
      vertex   -6.217249e-14 -1.345872e+02 4.500000e+01
      vertex   1.307404e+02 -1.422790e+02 4.500000e+01
      vertex   7.910835e+01 -1.088833e+02 4.500000e+01
    endloop
  endfacet
  facet normal -0.000000e+00 0.000000e+00 1.000000e+00
    outer loop
      vertex   7.910835e+01 -1.088833e+02 4.500000e+01
      vertex   1.307404e+02 -1.422790e+02 4.500000e+01
      vertex   1.307404e+02 -1.063314e+02 4.500000e+01
    endloop
  endfacet
  facet normal 0.000000e+00 0.000000e+00 1.000000e+00
    outer loop
      vertex   7.910835e+01 -1.088833e+02 4.500000e+01
      vertex   1.307404e+02 -1.063314e+02 4.500000e+01
      vertex   8.096245e+01 -1.063314e+02 4.500000e+01
    endloop
  endfacet
  facet normal 1.000000e+00 0.000000e+00 0.000000e+00
    outer loop
      vertex   1.307404e+02 -1.422790e+02 4.500000e+01
      vertex   1.307404e+02 -1.422790e+02 0.000000e+00
      vertex   1.307404e+02 -1.063314e+02 3.000000e+00
    endloop
  endfacet
  facet normal 1.000000e+00 0.000000e+00 0.000000e+00
    outer loop
      vertex   1.307404e+02 -1.063314e+02 3.000000e+00
      vertex   1.307404e+02 -1.422790e+02 0.000000e+00
      vertex   1.307404e+02 1.434710e+02 0.000000e+00
    endloop
  endfacet
  facet normal 1.000000e+00 -0.000000e+00 0.000000e+00
    outer loop
      vertex   1.307404e+02 -1.063314e+02 3.000000e+00
      vertex   1.307404e+02 1.434710e+02 0.000000e+00
      vertex   1.307404e+02 1.088833e+02 3.000000e+00
    endloop
  endfacet
  facet normal 1.000000e+00 -0.000000e+00 0.000000e+00
    outer loop
      vertex   1.307404e+02 1.088833e+02 3.000000e+00
      vertex   1.307404e+02 1.434710e+02 0.000000e+00
      vertex   1.307404e+02 1.434710e+02 4.500000e+01
    endloop
  endfacet
  facet normal 1.000000e+00 0.000000e+00 0.000000e+00
    outer loop
      vertex   1.307404e+02 1.088833e+02 3.000000e+00
      vertex   1.307404e+02 1.434710e+02 4.500000e+01
      vertex   1.307404e+02 1.088833e+02 4.500000e+01
    endloop
  endfacet
  facet normal 1.000000e+00 0.000000e+00 -0.000000e+00
    outer loop
      vertex   1.307404e+02 -1.063314e+02 3.000000e+00
      vertex   1.307404e+02 -1.063314e+02 4.500000e+01
      vertex   1.307404e+02 -1.422790e+02 4.500000e+01
    endloop
  endfacet
  facet normal 0.000000e+00 -1.000000e+00 0.000000e+00
    outer loop
      vertex   7.910835e+01 1.088833e+02 3.000000e+00
      vertex   1.307404e+02 1.088833e+02 3.000000e+00
      vertex   7.910835e+01 1.088833e+02 4.500000e+01
    endloop
  endfacet
  facet normal 0.000000e+00 -1.000000e+00 0.000000e+00
    outer loop
      vertex   7.910835e+01 1.088833e+02 4.500000e+01
      vertex   1.307404e+02 1.088833e+02 3.000000e+00
      vertex   1.307404e+02 1.088833e+02 4.500000e+01
    endloop
  endfacet
  facet normal -1.000000e+00 0.000000e+00 0.000000e+00
    outer loop
      vertex   5.329071e-14 1.434710e+02 3.000000e+00
      vertex   5.329071e-14 1.345872e+02 3.000000e+00
      vertex   5.329071e-14 1.434710e+02 4.500000e+01
    endloop
  endfacet
  facet normal -1.000000e+00 -0.000000e+00 0.000000e+00
    outer loop
      vertex   5.329071e-14 1.434710e+02 4.500000e+01
      vertex   5.329071e-14 1.345872e+02 3.000000e+00
      vertex   5.329071e-14 1.345872e+02 4.500000e+01
    endloop
  endfacet
  facet normal -3.090170e-01 -9.510565e-01 0.000000e+00
    outer loop
      vertex   5.329071e-14 1.345872e+02 3.000000e+00
      vertex   7.910835e+01 1.088833e+02 3.000000e+00
      vertex   5.329071e-14 1.345872e+02 4.500000e+01
    endloop
  endfacet
  facet normal -3.090170e-01 -9.510565e-01 0.000000e+00
    outer loop
      vertex   5.329071e-14 1.345872e+02 4.500000e+01
      vertex   7.910835e+01 1.088833e+02 3.000000e+00
      vertex   7.910835e+01 1.088833e+02 4.500000e+01
    endloop
  endfacet
  facet normal -0.000000e+00 0.000000e+00 1.000000e+00
    outer loop
      vertex   5.329071e-14 1.434710e+02 4.500000e+01
      vertex   5.329071e-14 1.345872e+02 4.500000e+01
      vertex   1.307404e+02 1.434710e+02 4.500000e+01
    endloop
  endfacet
  facet normal 0.000000e+00 0.000000e+00 1.000000e+00
    outer loop
      vertex   1.307404e+02 1.434710e+02 4.500000e+01
      vertex   5.329071e-14 1.345872e+02 4.500000e+01
      vertex   7.910835e+01 1.088833e+02 4.500000e+01
    endloop
  endfacet
  facet normal 0.000000e+00 0.000000e+00 1.000000e+00
    outer loop
      vertex   1.307404e+02 1.434710e+02 4.500000e+01
      vertex   7.910835e+01 1.088833e+02 4.500000e+01
      vertex   1.307404e+02 1.088833e+02 4.500000e+01
    endloop
  endfacet
  facet normal 0.000000e+00 0.000000e+00 1.000000e+00
    outer loop
      vertex   -7.910835e+01 -1.422790e+02 3.000000e+00
      vertex   -6.217249e-14 -1.345872e+02 3.000000e+00
      vertex   -7.741426e+01 -1.094337e+02 3.000000e+00
    endloop
  endfacet
  facet normal -0.000000e+00 0.000000e+00 1.000000e+00
    outer loop
      vertex   -7.741426e+01 -1.094337e+02 3.000000e+00
      vertex   -6.217249e-14 -1.345872e+02 3.000000e+00
      vertex   8.096245e+01 -1.063314e+02 3.000000e+00
    endloop
  endfacet
  facet normal 0.000000e+00 -0.000000e+00 1.000000e+00
    outer loop
      vertex   -7.741426e+01 -1.094337e+02 3.000000e+00
      vertex   8.096245e+01 -1.063314e+02 3.000000e+00
      vertex   -1.280000e+02 -4.158972e+01 3.000000e+00
    endloop
  endfacet
  facet normal -0.000000e+00 0.000000e+00 1.000000e+00
    outer loop
      vertex   -1.280000e+02 -4.158972e+01 3.000000e+00
      vertex   8.096245e+01 -1.063314e+02 3.000000e+00
      vertex   -1.280000e+02 4.158972e+01 3.000000e+00
    endloop
  endfacet
  facet normal 0.000000e+00 -0.000000e+00 1.000000e+00
    outer loop
      vertex   -1.280000e+02 -4.158972e+01 3.000000e+00
      vertex   -1.280000e+02 4.158972e+01 3.000000e+00
      vertex   -1.550096e+02 4.158972e+01 3.000000e+00
    endloop
  endfacet
  facet normal 0.000000e+00 0.000000e+00 1.000000e+00
    outer loop
      vertex   -7.910835e+01 -1.422790e+02 3.000000e+00
      vertex   -6.217249e-14 -1.422790e+02 3.000000e+00
      vertex   -6.217249e-14 -1.345872e+02 3.000000e+00
    endloop
  endfacet
  facet normal 0.000000e+00 0.000000e+00 1.000000e+00
    outer loop
      vertex   -6.217249e-14 -1.345872e+02 3.000000e+00
      vertex   7.910835e+01 -1.088833e+02 3.000000e+00
      vertex   8.096245e+01 -1.063314e+02 3.000000e+00
    endloop
  endfacet
  facet normal 0.000000e+00 -0.000000e+00 1.000000e+00
    outer loop
      vertex   1.307404e+02 -1.063314e+02 3.000000e+00
      vertex   1.307404e+02 1.088833e+02 3.000000e+00
      vertex   8.096245e+01 -1.063314e+02 3.000000e+00
    endloop
  endfacet
  facet normal 0.000000e+00 -0.000000e+00 1.000000e+00
    outer loop
      vertex   8.096245e+01 -1.063314e+02 3.000000e+00
      vertex   1.307404e+02 1.088833e+02 3.000000e+00
      vertex   7.910835e+01 1.088833e+02 3.000000e+00
    endloop
  endfacet
  facet normal 0.000000e+00 0.000000e+00 1.000000e+00
    outer loop
      vertex   8.096245e+01 -1.063314e+02 3.000000e+00
      vertex   7.910835e+01 1.088833e+02 3.000000e+00
      vertex   5.329071e-14 1.345872e+02 3.000000e+00
    endloop
  endfacet
  facet normal 0.000000e+00 0.000000e+00 1.000000e+00
    outer loop
      vertex   5.329071e-14 1.434710e+02 3.000000e+00
      vertex   -7.910835e+01 1.434710e+02 3.000000e+00
      vertex   5.329071e-14 1.345872e+02 3.000000e+00
    endloop
  endfacet
  facet normal 0.000000e+00 0.000000e+00 1.000000e+00
    outer loop
      vertex   5.329071e-14 1.345872e+02 3.000000e+00
      vertex   -7.910835e+01 1.434710e+02 3.000000e+00
      vertex   -7.910835e+01 1.088833e+02 3.000000e+00
    endloop
  endfacet
  facet normal 0.000000e+00 0.000000e+00 1.000000e+00
    outer loop
      vertex   5.329071e-14 1.345872e+02 3.000000e+00
      vertex   -7.910835e+01 1.088833e+02 3.000000e+00
      vertex   8.096245e+01 -1.063314e+02 3.000000e+00
    endloop
  endfacet
  facet normal 0.000000e+00 0.000000e+00 1.000000e+00
    outer loop
      vertex   8.096245e+01 -1.063314e+02 3.000000e+00
      vertex   -7.910835e+01 1.088833e+02 3.000000e+00
      vertex   -1.280000e+02 4.158972e+01 3.000000e+00
    endloop
  endfacet
  facet normal 0.000000e+00 0.000000e+00 1.000000e+00
    outer loop
      vertex   -1.550096e+02 4.158972e+01 3.000000e+00
      vertex   -1.550096e+02 -4.158972e+01 3.000000e+00
      vertex   -1.280000e+02 -4.158972e+01 3.000000e+00
    endloop
  endfacet
  facet normal 0.000000e+00 0.000000e+00 1.000000e+00
    outer loop
      vertex   -1.280000e+02 -4.158972e+01 3.000000e+00
      vertex   -7.910835e+01 -1.088833e+02 3.000000e+00
      vertex   -7.741426e+01 -1.094337e+02 3.000000e+00
    endloop
  endfacet
  facet normal -9.946355e-17 -1.000000e+00 5.139268e-15
    outer loop
      vertex   1.307404e+02 -1.422790e+02 0.000000e+00
      vertex   -6.217249e-14 -1.422790e+02 3.000000e+00
      vertex   -1.550096e+02 -1.422790e+02 0.000000e+00
    endloop
  endfacet
  facet normal 0.000000e+00 -1.000000e+00 0.000000e+00
    outer loop
      vertex   -1.550096e+02 -1.422790e+02 0.000000e+00
      vertex   -6.217249e-14 -1.422790e+02 3.000000e+00
      vertex   -7.910835e+01 -1.422790e+02 3.000000e+00
    endloop
  endfacet
  facet normal 0.000000e+00 -1.000000e+00 0.000000e+00
    outer loop
      vertex   -1.550096e+02 -1.422790e+02 0.000000e+00
      vertex   -7.910835e+01 -1.422790e+02 3.000000e+00
      vertex   -1.550096e+02 -1.422790e+02 4.500000e+01
    endloop
  endfacet
  facet normal 0.000000e+00 -1.000000e+00 0.000000e+00
    outer loop
      vertex   -1.550096e+02 -1.422790e+02 4.500000e+01
      vertex   -7.910835e+01 -1.422790e+02 3.000000e+00
      vertex   -7.910835e+01 -1.422790e+02 4.500000e+01
    endloop
  endfacet
  facet normal -2.173904e-16 -1.000000e+00 0.000000e+00
    outer loop
      vertex   1.307404e+02 -1.422790e+02 0.000000e+00
      vertex   1.307404e+02 -1.422790e+02 4.500000e+01
      vertex   -6.217249e-14 -1.422790e+02 3.000000e+00
    endloop
  endfacet
  facet normal -2.173904e-16 -1.000000e+00 0.000000e+00
    outer loop
      vertex   -6.217249e-14 -1.422790e+02 3.000000e+00
      vertex   1.307404e+02 -1.422790e+02 4.500000e+01
      vertex   -6.217249e-14 -1.422790e+02 4.500000e+01
    endloop
  endfacet
endsolid
